


TITLE:

Sket 2011 DVDRiP AC3 XViD  - INSPiRAL

IMDB:
 
http://www.imdb.com/title/tt1658820/


SOURCES: legend rg

VIDEO -  THANKS
AUDIO -  THANKS
SUBS  - None Add

STATS:

Complete name                            : Sket 2011 DVDRiP AC3 XViD  - INSPiRALSAMPLE SK  - INSPiRAL.avi
Format                                   : AVI
Format/Info                              : Audio Video Interleave
File size                                : 44.8 MiB
Duration                                 : 1mn 16s
Overall bit rate                         : 4 921 Kbps
Writing library                          : VirtualDub build 32842/release

Video
ID                                       : 0
Format                                   : MPEG-4 Visual
Format profile                           : Advanced Simple@L5
Format settings, BVOP                    : 2
Format settings, QPel                    : No
Format settings, GMC                     : No warppoints
Format settings, Matrix                  : Default (MPEG)
Muxing mode                              : Packed bitstream
Codec ID                                 : XVID
Codec ID/Hint                            : XviD
Duration                                 : 1mn 16s
Bit rate                                 : 4 462 Kbps
Width                                    : 720 pixels
Height                                   : 304 pixels
Display aspect ratio                     : 2.35:1
Frame rate                               : 25.000 fps
Color space                              : YUV
Chroma subsampling                       : 4:2:0
Bit depth                                : 8 bits
Scan type                                : Progressive
Compression mode                         : Lossy
Bits/(Pixel*Frame)                       : 0.815
Stream size                              : 40.7 MiB (91%)
Writing library                          : XviD 64

Audio
ID                                       : 1
Format                                   : AC-3
Format/Info                              : Audio Coding 3
Mode extension                           : CM (complete main)
Codec ID                                 : 2000
Duration                                 : 1mn 16s
Bit rate mode                            : Constant
Bit rate                                 : 448 Kbps
Channel(s)                               : 6 channels
Channel positions                        : Front: L C R, Side: L R, LFE
Sampling rate                            : 48.0 KHz
Bit depth                                : 16 bits
Compression mode                         : Lossy
Stream size                              : 4.08 MiB (9%)
Alignment                                : Aligned on interleaves
Interleave, duration                     : 40 ms (1.01 video frame)
Interleave, preload duration             : 512 ms




NOTES:
RIPPED AS IT SHOULD BE RIPPED. RESULT = VERY NICE.

